<svg xmlns="http://www.w3.org/2000/svg" viewBox="0 0 1108 732" width="1108" height="732">
	<style>
		tspan { white-space:pre }
		.shp0 { fill: #f2f2f2 } 
		.shp1 { fill: #3f3d56 } 
		.shp2 { opacity: 0.102;fill: #000000 } 
		.shp3 { fill: none;stroke: #3f3d56;stroke-width: 4 } 
		.shp4 { fill: #8146c9 } 
		.shp5 { fill: #656380 } 
		.shp6 { opacity: 0.2;fill: #000000 } 
		.shp7 { fill: #fc37aa } 
		.shp8 { fill: #ffffff } 
		.shp9 { fill: #a0616a } 
		.shp10 { opacity: 0.031;fill: #000000 } 
	</style>
	<path id="Layer" class="shp0" d="M767.68 330.79L774.57 328.09C775.23 327.83 775.88 327.55 776.57 327.28C763.82 322.59 753.05 313.69 746.02 302.06C738.99 290.43 736.14 276.76 737.91 263.28C739.69 249.81 746 237.35 755.8 227.94C765.61 218.53 778.32 212.74 791.85 211.51L787.05 235.71L805.27 211.79L805.43 211.79C813.22 212.86 820.72 215.45 827.5 219.42C834.29 223.39 840.23 228.66 844.98 234.92C849.73 241.18 853.2 248.32 855.19 255.93C857.18 263.53 857.66 271.45 856.59 279.24C856.44 280.37 856.2 281.47 855.99 282.58C861.6 278.15 866.86 273.26 870.8 267.58C878.8 256.04 881.51 241.82 884.27 224.41C889.74 189.93 894.67 155.07 899.11 120.23C892.35 118.19 886 114.97 880.36 110.71C874.72 106.46 869.88 101.24 866.06 95.29C862.24 89.35 859.5 82.78 857.98 75.88C856.45 68.98 856.16 61.87 857.11 54.87C857.36 53.05 857.71 51.28 858.11 49.53C858.21 49.09 858.31 48.65 858.42 48.22C858.85 46.53 859.33 44.87 859.89 43.22C859.98 42.95 860.1 42.7 860.19 42.44C860.69 41.07 861.19 39.72 861.84 38.44C862.06 37.94 862.28 37.44 862.51 36.97C863.2 35.54 863.93 34.14 864.73 32.78C865 32.33 865.29 31.9 865.56 31.45C866.18 30.45 866.83 29.45 867.5 28.52C867.86 28.02 868.21 27.52 868.58 27.03L868.85 26.64L868.85 26.64C873.06 21.13 878.2 16.39 884.04 12.63C889.88 8.88 896.33 6.18 903.09 4.63C909.86 3.09 916.84 2.74 923.73 3.6C930.62 4.45 937.3 6.49 943.49 9.64L937.25 41.13L955.25 17.49C960.06 21.57 964.19 26.38 967.49 31.75C970.79 37.12 973.22 42.99 974.67 49.12C976.13 55.25 976.61 61.58 976.08 67.86C975.55 74.15 974.03 80.31 971.57 86.11L971.64 86.11C971.47 86.51 971.26 86.89 971.09 87.29C970.76 88.03 970.42 88.76 970.09 89.49C969.63 90.42 969.09 91.33 968.64 92.23C968.26 92.91 967.89 93.59 967.48 94.23C966.89 95.23 966.25 96.13 965.61 97.06C965.23 97.6 964.88 98.16 964.49 98.69C963.49 100.08 962.37 101.41 961.23 102.69C960.83 103.14 960.4 103.55 959.98 103.99C959.17 104.85 958.36 105.7 957.5 106.51C956.97 107.01 956.41 107.51 955.86 107.97C955.07 108.67 954.26 109.35 953.43 109.97C952.84 110.44 952.24 110.89 951.64 111.33C950.77 111.96 949.89 112.55 949 113.14C948.4 113.53 947.8 113.92 947.19 114.29C946.19 114.9 945.14 115.46 944.09 116.01C943.56 116.28 943.09 116.58 942.5 116.84C940.92 117.61 939.3 118.32 937.65 118.95C937.34 119.07 937.01 119.16 936.7 119.27C935.32 119.77 933.93 120.27 932.52 120.62C931.91 120.79 931.29 120.93 930.67 121.08C929.52 121.36 928.36 121.62 927.19 121.84C926.52 121.96 925.83 122.07 925.12 122.17C923.97 122.34 922.81 122.47 921.64 122.57C920.95 122.63 920.27 122.69 919.57 122.73C918.31 122.79 917.04 122.8 915.77 122.79C915.75 122.79 915.73 122.79 915.71 122.79C915.69 122.79 915.67 122.79 915.64 122.79C915.62 122.79 915.6 122.79 915.58 122.79C915.56 122.79 915.54 122.79 915.52 122.79C913.64 137.46 911.67 152.12 909.6 166.79C914.45 160.24 920.59 154.76 927.63 150.66C934.68 146.57 942.48 143.96 950.57 143C958.66 142.03 966.87 142.73 974.68 145.04C982.49 147.36 989.74 151.25 996 156.47L980.32 183.05L1005.53 166.46C1007.88 169.58 1009.93 172.92 1011.63 176.43C1013.33 179.94 1014.68 183.62 1015.67 187.4C1016.65 191.18 1017.26 195.04 1017.49 198.94C1017.72 202.84 1017.57 206.75 1017.03 210.62C1016.85 211.99 1016.61 213.36 1016.33 214.71C1016.05 216.07 1015.72 217.42 1015.34 218.75C1014.97 220.08 1014.54 221.4 1014.08 222.7C1013.61 224.01 1013.09 225.29 1012.53 226.56C1007.72 237.55 999.71 246.83 989.56 253.21C979.4 259.6 967.56 262.78 955.58 262.35C943.59 261.92 932.01 257.89 922.34 250.8C912.67 243.7 905.35 233.86 901.34 222.56C901.11 224.04 900.89 225.56 900.66 227.02C898.22 242.37 895.19 261.48 884.43 277.02C877.14 287.58 867.1 295.38 857.34 302.24C850.99 306.71 844.5 310.96 837.86 315.01C836.13 316.62 834.3 318.12 832.38 319.52C830.47 320.91 828.48 322.18 826.41 323.34C824.35 324.5 822.22 325.53 820.03 326.43C817.85 327.34 815.61 328.11 813.33 328.75C802.66 334.21 791.77 339.15 780.64 343.56L773.69 346.28C767.44 348.72 761.04 351.22 754.69 353.88C755.69 353.97 756.69 354.05 757.69 354.18C763.94 355.04 770.02 356.88 775.7 359.64C781.37 362.39 786.58 366.03 791.12 370.41C795.67 374.79 799.49 379.86 802.45 385.43C805.41 391.01 807.47 397.01 808.55 403.23L766.24 426.34L808.42 424.45C808 426.78 807.44 429.08 806.74 431.34C806.05 433.6 805.22 435.82 804.26 437.98C803.3 440.14 802.21 442.24 800.99 444.27C799.78 446.3 798.45 448.26 797 450.13C792.28 456.25 786.41 461.39 779.73 465.27C773.05 469.16 765.69 471.72 758.04 472.8C750.38 473.89 742.6 473.49 735.1 471.61C727.6 469.74 720.54 466.43 714.3 461.87L716.4 465.78C717.8 468.36 719.18 470.93 720.52 473.48C738.85 508.22 740.18 538.22 724.27 557.97L711.27 547.52C726.76 528.3 714.47 497.75 705.77 481.25C704.45 478.75 703.09 476.25 701.77 473.69C690 451.86 676.65 427.12 682 400.79C690 361.09 733.05 344.29 767.68 330.79Z" />
	<path id="Layer" class="shp0" d="M269.6 519.01L264.22 516.9C263.7 516.7 263.22 516.47 262.68 516.27C272.63 512.6 281.04 505.65 286.53 496.57C292.01 487.48 294.24 476.81 292.85 466.29C291.46 455.77 286.54 446.04 278.88 438.69C271.23 431.34 261.31 426.81 250.74 425.85L254.49 444.75L240.27 426.07L240.14 426.07C234.05 426.9 228.19 428.92 222.89 432.02C217.58 435.12 212.94 439.23 209.23 444.12C205.51 449.01 202.8 454.59 201.24 460.53C199.68 466.47 199.31 472.66 200.14 478.75C200.26 479.64 200.45 480.49 200.61 481.36C199.51 480.53 198.44 479.66 197.4 478.76C196.37 477.85 195.36 476.9 194.4 475.92C193.43 474.94 192.5 473.93 191.61 472.88C190.71 471.83 189.86 470.74 189.05 469.63C182.82 460.63 180.68 449.51 178.52 435.92C174.29 408.99 170.45 381.77 167 354.59C172.28 352.99 177.24 350.48 181.64 347.15C186.04 343.83 189.82 339.75 192.8 335.11C195.78 330.46 197.91 325.33 199.1 319.95C200.29 314.56 200.52 309.01 199.77 303.54C199.57 302.12 199.3 300.74 198.98 299.37L198.74 298.37C198.4 297.05 198.03 295.75 197.59 294.49C197.52 294.28 197.43 294.08 197.35 293.88C196.96 292.81 196.53 291.76 196.07 290.73C195.89 290.35 195.72 289.96 195.54 289.58C195 288.47 194.43 287.38 193.81 286.32C193.6 285.96 193.37 285.62 193.16 285.32C192.67 284.54 192.16 283.77 191.64 283.03C191.36 282.64 191.09 282.24 190.8 281.86L190.59 281.56L190.59 281.56C187.3 277.25 183.29 273.55 178.73 270.62C174.17 267.69 169.14 265.57 163.85 264.37C158.57 263.16 153.12 262.88 147.74 263.54C142.36 264.2 137.13 265.79 132.3 268.24L137.18 292.84L123.11 274.38C119.35 277.56 116.13 281.32 113.55 285.52C110.97 289.71 109.08 294.29 107.94 299.08C106.8 303.87 106.43 308.81 106.84 313.72C107.25 318.63 108.44 323.44 110.36 327.97L110.31 327.97C110.44 328.28 110.6 328.58 110.74 328.89C111 329.47 111.26 330.04 111.54 330.61C111.9 331.33 112.28 332.04 112.68 332.74C112.97 333.28 113.26 333.81 113.58 334.33C114.04 335.08 114.58 335.81 115.04 336.54C115.34 336.96 115.61 337.4 115.92 337.81C116.72 338.89 117.57 339.93 118.46 340.94C118.77 341.29 119.11 341.61 119.46 341.94C120.09 342.61 120.73 343.27 121.4 343.94C121.81 344.34 122.25 344.71 122.68 345.08C123.3 345.63 123.93 346.16 124.57 346.67C125.03 347.03 125.5 347.38 125.97 347.73C126.65 348.22 127.34 348.73 128.03 349.14C128.5 349.45 128.97 349.75 129.45 350.04C130.24 350.52 131.05 350.95 131.87 351.38C132.29 351.6 132.69 351.83 133.11 352.04C134.35 352.64 135.61 353.19 136.9 353.68C137.14 353.78 137.4 353.84 137.64 353.93C138.71 354.32 139.8 354.68 140.91 354.99C141.38 355.12 141.91 355.23 142.35 355.34C143.25 355.56 144.15 355.77 145.07 355.94L146.68 356.2C147.58 356.33 148.49 356.43 149.4 356.51C149.94 356.56 150.47 356.6 151.02 356.63C152.02 356.68 153.02 356.69 154.02 356.68L154.21 356.68C155.68 368.16 157.22 379.63 158.83 391.09C155.05 385.97 150.26 381.68 144.76 378.47C139.26 375.27 133.17 373.22 126.85 372.46C120.53 371.7 114.12 372.24 108.01 374.04C101.91 375.84 96.24 378.88 91.35 382.95L103.49 403.59L83.81 390.64C81.97 393.07 80.37 395.68 79.04 398.42C77.71 401.17 76.65 404.04 75.88 406.99C75.11 409.94 74.63 412.96 74.45 416.01C74.27 419.05 74.39 422.11 74.81 425.13C74.95 426.2 75.14 427.27 75.36 428.33C75.58 429.39 75.84 430.44 76.13 431.49C76.43 432.53 76.76 433.56 77.13 434.58C77.5 435.6 77.9 436.6 78.34 437.59C82.1 446.17 88.35 453.42 96.28 458.41C104.21 463.39 113.46 465.87 122.82 465.54C132.18 465.2 141.23 462.06 148.78 456.52C156.33 450.98 162.05 443.3 165.18 434.47C165.36 435.62 165.53 436.79 165.71 437.95C167.61 449.95 169.98 464.87 178.38 477.03C184.08 485.27 191.92 491.36 199.54 496.72C204.5 500.21 209.57 503.55 214.75 506.72C216.11 507.98 217.53 509.15 219.03 510.24C220.52 511.33 222.08 512.32 223.69 513.23C225.3 514.13 226.97 514.94 228.68 515.65C230.38 516.35 232.13 516.96 233.91 517.46C242.23 521.72 250.75 525.6 259.45 529.02L264.87 531.15C269.75 533.05 274.75 535 279.68 537.08C278.9 537.15 278.11 537.21 277.32 537.32C272.44 537.99 267.7 539.42 263.26 541.57C258.83 543.72 254.77 546.56 251.22 549.98C247.67 553.39 244.69 557.35 242.37 561.7C240.06 566.05 238.45 570.74 237.6 575.59L270.6 593.59L237.66 592.12C239.11 599.89 242.51 607.17 247.53 613.27C252.55 619.37 259.04 624.1 266.39 627.02C273.74 629.93 281.7 630.94 289.54 629.94C297.38 628.95 304.85 625.98 311.23 621.32C310.68 622.32 310.14 623.32 309.59 624.37C308.5 626.37 307.42 628.37 306.37 630.37C292.06 657.5 291.02 680.94 303.45 696.37L313.58 688.21C301.48 673.21 311.08 649.34 317.88 636.45C318.88 634.5 319.97 632.53 321.04 630.55C330.23 613.55 340.65 594.18 336.5 573.61C330.29 542.67 296.64 529.59 269.6 519.01Z" />
	<path id="Layer" class="shp1" d="M554 731.18C247.64 731.18 0 720.68 0 707.68C0 694.68 247.64 684.18 554 684.18C860.36 684.18 1108 694.68 1108 707.68C1108 720.68 860.36 731.18 554 731.18Z" />
	<path id="Layer" class="shp2" d="M554 731.18C247.64 731.18 0 720.68 0 707.68C0 694.68 247.64 684.18 554 684.18C860.36 684.18 1108 694.68 1108 707.68C1108 720.68 860.36 731.18 554 731.18Z" />
	<path id="Layer" class="shp1" d="M554 718.18C247.64 718.18 0 707.68 0 694.68C0 681.68 247.64 671.18 554 671.18C860.36 671.18 1108 681.68 1108 694.68C1108 707.68 860.36 718.18 554 718.18Z" />
	<path id="Layer" class="shp3" d="M85 686.32C82 680.81 85.4 674.06 89.28 669.14C93.16 664.22 97.89 659.14 97.79 652.85C97.65 643.85 88.09 638.54 80.46 633.77C79.05 632.89 77.66 631.96 76.3 630.99C74.94 630.03 73.61 629.02 72.31 627.97C71.01 626.93 69.74 625.85 68.51 624.73C67.27 623.61 66.07 622.45 64.9 621.26C64.41 620.8 63.95 620.32 63.5 619.82C63.05 619.32 62.63 618.81 62.23 618.27C61.83 617.73 61.45 617.18 61.1 616.61C60.75 616.04 60.42 615.46 60.12 614.86C58.54 611.34 58.59 607.34 58.69 603.48C59.02 590.64 59.66 577.81 60.59 565" />
	<path id="Layer" class="shp4" d="M46.11 564.29C46.16 563.12 46.36 561.96 46.71 560.84C47.05 559.72 47.53 558.65 48.14 557.65C48.75 556.65 49.48 555.73 50.32 554.91C51.16 554.09 52.1 553.38 53.11 552.8L56.25 559.01L56.16 551.49C56.53 551.38 56.91 551.28 57.29 551.2C57.67 551.12 58.06 551.06 58.45 551.01C58.83 550.97 59.22 550.94 59.61 550.92C60 550.91 60.39 550.91 60.78 550.93C66.43 551.21 71.36 554.86 73.27 560.18C75.18 565.5 73.71 571.46 69.52 575.26C65.34 579.07 59.28 579.99 54.15 577.59C49.03 575.19 45.86 569.94 46.11 564.29L46.11 564.29Z" />
	<path id="Layer" class="shp4" d="M71.14 659.29C72.53 662.07 74.81 664.3 77.62 665.64C80.42 666.98 83.59 667.35 86.62 666.69C89.66 666.03 92.39 664.37 94.38 661.99C96.38 659.61 97.52 656.63 97.64 653.53C97.66 653.05 97.66 652.56 97.64 652.08C97.61 651.6 97.56 651.11 97.48 650.64C97.41 650.16 97.31 649.69 97.18 649.22C97.05 648.75 96.9 648.29 96.73 647.84C95.72 645.16 93.92 642.85 91.56 641.23C89.2 639.6 86.41 638.74 83.54 638.76C80.68 638.78 77.89 639.67 75.55 641.32C73.21 642.97 71.44 645.3 70.46 647.99L79.23 655.12L69.59 652.88C69.59 653.44 69.62 653.99 69.69 654.54C69.75 655.09 69.85 655.64 69.98 656.18C70.11 656.72 70.27 657.25 70.47 657.77C70.66 658.29 70.89 658.8 71.14 659.29L71.14 659.29Z" />
	<path id="Layer" class="shp4" d="M78.07 632.04C81.57 632.3 85.04 631.25 87.79 629.08C90.55 626.91 92.39 623.78 92.95 620.32C93.51 616.86 92.75 613.31 90.82 610.38C88.89 607.45 85.93 605.35 82.53 604.5L82.6 610.29L79.42 604L79.42 604C75.71 603.87 72.08 605.17 69.34 607.67C66.59 610.17 64.95 613.66 64.78 617.37C64.61 621.08 65.91 624.71 68.41 627.45C70.91 630.2 74.4 631.84 78.11 632.01L78.07 632.04Z" />
	<path id="Layer" class="shp4" d="M44 609.37C47.71 609.53 51.34 608.22 54.08 605.72C56.83 603.23 58.47 599.74 58.64 596.03C58.82 592.32 57.51 588.69 55.01 585.95C52.52 583.2 49.03 581.56 45.32 581.39C44.67 581.34 44.01 581.35 43.36 581.41C42.71 581.47 42.07 581.58 41.43 581.73C40.8 581.88 40.17 582.07 39.57 582.31C38.96 582.55 38.37 582.83 37.8 583.15L40.28 589.95L35.17 585.05C34.49 585.67 33.88 586.35 33.34 587.09C32.8 587.83 32.33 588.62 31.94 589.45C31.56 590.27 31.25 591.14 31.03 592.03C30.81 592.92 30.68 593.83 30.64 594.74C30.62 595.06 30.62 595.39 30.62 595.71C30.63 596.03 30.65 596.36 30.68 596.68C30.71 597 30.75 597.32 30.81 597.64C30.86 597.96 30.92 598.28 31 598.59C31.35 600.06 31.93 601.47 32.73 602.76C33.53 604.05 34.53 605.19 35.69 606.16C36.86 607.13 38.17 607.9 39.58 608.44C41 608.99 42.49 609.3 44 609.37Z" />
	<path id="Layer" class="shp2" d="M48 568.03C51.24 568.39 54.39 569.4 57.64 569.6C60.89 569.8 64.46 569.02 66.52 566.5C67.63 565.13 68.18 563.41 69.11 561.93C69.33 561.59 69.57 561.26 69.84 560.94C70.1 560.63 70.38 560.33 70.68 560.05C70.97 559.77 71.29 559.51 71.62 559.26C71.95 559.02 72.29 558.8 72.65 558.6C74.36 562.18 74.48 566.32 72.96 569.99C71.45 573.65 68.45 576.51 64.71 577.83C60.97 579.16 56.84 578.84 53.35 576.95C49.86 575.06 47.34 571.78 46.41 567.92C46.94 567.94 47.47 567.98 48 568.03Z" />
	<path id="Layer" class="shp2" d="M44 609.37C46.42 609.49 48.83 608.99 51 607.9C53.16 606.81 55.01 605.18 56.35 603.16C57.7 601.14 58.5 598.81 58.67 596.4C58.85 593.98 58.39 591.56 57.35 589.37C57.07 589.56 56.8 589.76 56.55 589.97C56.29 590.19 56.04 590.41 55.8 590.65C55.57 590.89 55.34 591.13 55.13 591.39C54.92 591.65 54.72 591.92 54.53 592.2C53.53 593.71 52.92 595.45 51.75 596.84C49.56 599.41 45.83 600.25 42.44 600.09C39.05 599.93 35.78 598.98 32.44 598.67C31.97 598.67 31.5 598.59 31.03 598.58C31.38 600.05 31.96 601.46 32.75 602.75C33.55 604.03 34.54 605.18 35.71 606.15C36.87 607.12 38.18 607.89 39.59 608.44C41 608.98 42.49 609.3 44 609.37Z" />
	<path id="Layer" class="shp2" d="M78.07 632.04C80.47 632.16 82.86 631.67 85.01 630.6C87.16 629.53 89 627.93 90.36 625.94C91.71 623.96 92.53 621.66 92.74 619.27C92.94 616.87 92.53 614.47 91.54 612.28C91.25 612.47 90.97 612.67 90.7 612.89C90.42 613.1 90.16 613.33 89.91 613.57C89.66 613.81 89.42 614.06 89.19 614.32C88.96 614.58 88.74 614.85 88.54 615.13C87.45 616.67 86.77 618.44 85.54 619.86C83.18 622.5 79.2 623.43 75.61 623.34C72.02 623.25 68.79 622.41 65.33 622.15C65.75 623.52 66.38 624.82 67.19 626C68.01 627.18 69 628.23 70.13 629.11C71.27 629.99 72.53 630.69 73.88 631.19C75.22 631.69 76.64 631.97 78.07 632.04L78.07 632.04Z" />
	<path id="Layer" class="shp2" d="M71.14 659.29C72.53 662.07 74.81 664.3 77.62 665.64C80.42 666.98 83.59 667.35 86.62 666.69C89.66 666.03 92.39 664.37 94.38 661.99C96.38 659.61 97.52 656.63 97.64 653.53C97.66 653.05 97.66 652.56 97.64 652.08C97.61 651.6 97.56 651.11 97.48 650.64C97.41 650.16 97.31 649.69 97.18 649.22C97.05 648.75 96.9 648.29 96.73 647.84C96.44 648.03 96.16 648.23 95.89 648.44C95.61 648.65 95.35 648.87 95.09 649.1C94.83 649.33 94.58 649.56 94.34 649.81C94.1 650.06 93.87 650.32 93.65 650.58C92.31 652.21 91.44 654.05 89.89 655.58C87.02 658.4 82.39 659.58 78.27 659.67C77.67 659.67 77.08 659.67 76.48 659.65C75.89 659.64 75.29 659.61 74.7 659.58C74.11 659.55 73.51 659.51 72.92 659.46C72.32 659.41 71.73 659.36 71.14 659.29L71.14 659.29Z" />
	<path id="Layer" class="shp5" d="M106.19 679.98C106.19 679.98 95.11 679.64 91.78 677.26C88.45 674.88 74.78 672.04 73.91 675.86C73.04 679.68 57.26 694.86 69.77 694.92C82.28 694.98 98.83 692.92 102.16 690.92C105.49 688.92 106.19 679.98 106.19 679.98Z" />
	<path id="Layer" class="shp6" d="M69.54 693.59C82.05 693.69 98.6 691.59 101.94 689.59C104.47 688.05 105.48 682.5 105.82 679.94L106.19 679.94C106.56 679.94 105.49 688.87 102.19 690.94C98.89 693.01 82.3 695.02 69.8 694.94C66.19 694.94 64.94 693.63 65.01 691.72C65.48 692.85 66.86 693.59 69.54 693.59Z" />
	<path id="Layer" class="shp3" d="M1055 695.32C1052 689.81 1055.4 683.06 1059.28 678.14C1063.16 673.22 1067.89 668.14 1067.79 661.85C1067.65 652.85 1058.09 647.54 1050.46 642.77C1049.05 641.89 1047.66 640.96 1046.3 639.99C1044.94 639.03 1043.61 638.02 1042.31 636.97C1041.01 635.93 1039.74 634.85 1038.51 633.73C1037.27 632.61 1036.07 631.45 1034.9 630.26C1034.41 629.8 1033.95 629.32 1033.5 628.82C1033.05 628.32 1032.63 627.81 1032.23 627.27C1031.83 626.73 1031.45 626.18 1031.1 625.61C1030.75 625.04 1030.42 624.46 1030.12 623.86C1028.54 620.34 1028.59 616.34 1028.69 612.48C1029.02 599.64 1029.65 586.81 1030.59 574" />
	<path id="Layer" class="shp4" d="M1016.11 573.29C1016.16 572.12 1016.36 570.96 1016.71 569.84C1017.05 568.72 1017.53 567.65 1018.14 566.65C1018.75 565.65 1019.48 564.73 1020.32 563.91C1021.16 563.09 1022.1 562.38 1023.11 561.8L1026.25 568.01L1026.16 560.49C1026.53 560.38 1026.91 560.28 1027.29 560.2C1027.67 560.12 1028.06 560.06 1028.45 560.01C1028.83 559.97 1029.22 559.94 1029.61 559.92C1030 559.91 1030.39 559.91 1030.78 559.93C1036.43 560.21 1041.35 563.86 1043.26 569.19C1045.17 574.51 1043.69 580.46 1039.51 584.27C1035.33 588.07 1029.26 588.99 1024.14 586.59C1019.02 584.19 1015.85 578.94 1016.1 573.29L1016.11 573.29Z" />
	<path id="Layer" class="shp4" d="M1041.14 668.29C1042.53 671.07 1044.81 673.3 1047.62 674.64C1050.42 675.98 1053.59 676.35 1056.62 675.69C1059.66 675.03 1062.39 673.37 1064.38 670.99C1066.38 668.61 1067.52 665.63 1067.64 662.53C1067.66 662.05 1067.66 661.56 1067.64 661.08C1067.61 660.6 1067.56 660.11 1067.48 659.64C1067.41 659.16 1067.31 658.69 1067.18 658.22C1067.05 657.75 1066.9 657.29 1066.73 656.84C1065.72 654.16 1063.92 651.85 1061.56 650.23C1059.2 648.6 1056.41 647.74 1053.54 647.76C1050.68 647.78 1047.89 648.67 1045.55 650.32C1043.21 651.97 1041.44 654.3 1040.46 656.99L1049.23 664.12L1039.59 661.88C1039.59 662.44 1039.62 662.99 1039.69 663.54C1039.75 664.09 1039.85 664.64 1039.98 665.18C1040.11 665.72 1040.27 666.25 1040.47 666.77C1040.66 667.29 1040.89 667.8 1041.14 668.29Z" />
	<path id="Layer" class="shp4" d="M1048.07 641.04C1051.57 641.3 1055.04 640.25 1057.79 638.08C1060.55 635.91 1062.39 632.78 1062.95 629.32C1063.51 625.86 1062.75 622.31 1060.82 619.38C1058.89 616.45 1055.93 614.35 1052.53 613.5L1052.6 619.29L1049.42 613L1049.42 613C1045.71 612.87 1042.08 614.17 1039.34 616.67C1036.59 619.17 1034.95 622.66 1034.78 626.37C1034.61 630.08 1035.91 633.71 1038.41 636.45C1040.91 639.2 1044.4 640.84 1048.11 641.01L1048.07 641.04Z" />
	<path id="Layer" class="shp4" d="M1014 618.37C1017.71 618.53 1021.34 617.22 1024.08 614.72C1026.83 612.23 1028.47 608.74 1028.64 605.03C1028.82 601.32 1027.51 597.69 1025.01 594.95C1022.52 592.2 1019.03 590.56 1015.32 590.39C1014.67 590.34 1014.01 590.35 1013.36 590.41C1012.71 590.47 1012.07 590.58 1011.43 590.73C1010.8 590.88 1010.17 591.07 1009.57 591.31C1008.96 591.55 1008.37 591.83 1007.8 592.15L1010.28 598.95L1005.17 594.05C1004.49 594.67 1003.88 595.35 1003.34 596.09C1002.8 596.83 1002.33 597.62 1001.94 598.45C1001.56 599.27 1001.25 600.14 1001.03 601.03C1000.81 601.92 1000.68 602.83 1000.64 603.74C1000.62 604.06 1000.62 604.39 1000.62 604.71C1000.63 605.03 1000.65 605.36 1000.68 605.68C1000.71 606 1000.75 606.32 1000.81 606.64C1000.86 606.96 1000.92 607.28 1001 607.59C1001.35 609.06 1001.93 610.47 1002.73 611.76C1003.53 613.05 1004.53 614.19 1005.69 615.16C1006.86 616.13 1008.17 616.9 1009.58 617.44C1011 617.99 1012.49 618.3 1014 618.37Z" />
	<path id="Layer" class="shp2" d="M1018 577.03C1021.24 577.39 1024.39 578.4 1027.64 578.6C1030.89 578.8 1034.46 578.02 1036.52 575.5C1037.63 574.13 1038.18 572.41 1039.11 570.93C1039.33 570.59 1039.57 570.26 1039.84 569.94C1040.1 569.63 1040.38 569.33 1040.68 569.05C1040.97 568.77 1041.29 568.51 1041.62 568.26C1041.95 568.02 1042.29 567.8 1042.65 567.6C1044.36 571.18 1044.48 575.32 1042.96 578.99C1041.45 582.65 1038.45 585.51 1034.71 586.83C1030.97 588.16 1026.84 587.84 1023.35 585.95C1019.86 584.06 1017.34 580.78 1016.41 576.92C1016.94 576.94 1017.47 576.98 1018 577.03Z" />
	<path id="Layer" class="shp2" d="M1014 618.37C1016.42 618.49 1018.83 617.99 1021 616.9C1023.16 615.81 1025.01 614.18 1026.35 612.16C1027.7 610.14 1028.5 607.81 1028.67 605.4C1028.85 602.98 1028.39 600.56 1027.35 598.37C1027.07 598.56 1026.8 598.76 1026.55 598.97C1026.29 599.19 1026.04 599.41 1025.8 599.65C1025.57 599.89 1025.34 600.13 1025.13 600.39C1024.92 600.65 1024.72 600.92 1024.53 601.2C1023.53 602.71 1022.92 604.45 1021.75 605.84C1019.56 608.41 1015.83 609.25 1012.44 609.09C1009.05 608.93 1005.78 607.98 1002.44 607.67C1001.97 607.67 1001.5 607.59 1001.03 607.58C1001.38 609.05 1001.96 610.46 1002.75 611.75C1003.55 613.03 1004.54 614.18 1005.71 615.15C1006.87 616.12 1008.18 616.89 1009.59 617.44C1011 617.98 1012.49 618.3 1014 618.37L1014 618.37Z" />
	<path id="Layer" class="shp2" d="M1048.07 641.04C1050.47 641.16 1052.86 640.67 1055.01 639.6C1057.16 638.53 1059 636.93 1060.36 634.94C1061.71 632.96 1062.53 630.66 1062.74 628.27C1062.94 625.87 1062.53 623.47 1061.54 621.28C1061.25 621.47 1060.97 621.67 1060.7 621.89C1060.42 622.1 1060.16 622.33 1059.91 622.57C1059.66 622.81 1059.42 623.06 1059.19 623.32C1058.96 623.58 1058.74 623.85 1058.54 624.13C1057.45 625.67 1056.77 627.44 1055.54 628.86C1053.18 631.5 1049.2 632.43 1045.61 632.34C1042.02 632.25 1038.79 631.41 1035.33 631.15C1035.75 632.52 1036.38 633.82 1037.19 635C1038.01 636.18 1039 637.23 1040.13 638.11C1041.27 638.99 1042.53 639.69 1043.88 640.19C1045.22 640.69 1046.64 640.97 1048.07 641.04L1048.07 641.04Z" />
	<path id="Layer" class="shp2" d="M1041.14 668.29C1042.53 671.07 1044.81 673.3 1047.62 674.64C1050.42 675.98 1053.59 676.35 1056.62 675.69C1059.66 675.03 1062.39 673.37 1064.38 670.99C1066.38 668.61 1067.52 665.63 1067.64 662.53C1067.66 662.05 1067.66 661.56 1067.64 661.08C1067.61 660.6 1067.56 660.11 1067.48 659.64C1067.41 659.16 1067.31 658.69 1067.18 658.22C1067.05 657.75 1066.9 657.29 1066.73 656.84C1066.44 657.03 1066.16 657.23 1065.89 657.44C1065.61 657.65 1065.35 657.87 1065.09 658.1C1064.83 658.33 1064.58 658.56 1064.34 658.81C1064.1 659.06 1063.87 659.32 1063.65 659.58C1062.31 661.21 1061.44 663.05 1059.89 664.58C1057.02 667.4 1052.39 668.58 1048.27 668.67C1047.67 668.67 1047.08 668.67 1046.48 668.65C1045.89 668.64 1045.29 668.61 1044.7 668.58C1044.11 668.55 1043.51 668.51 1042.92 668.46C1042.32 668.41 1041.73 668.36 1041.14 668.29L1041.14 668.29Z" />
	<path id="Layer" class="shp5" d="M1076.19 688.98C1076.19 688.98 1065.11 688.64 1061.78 686.26C1058.45 683.88 1044.78 681.04 1043.91 684.86C1043.04 688.68 1027.26 703.86 1039.77 703.92C1052.28 703.98 1068.83 701.92 1072.16 699.92C1075.49 697.92 1076.19 688.98 1076.19 688.98Z" />
	<path id="Layer" class="shp6" d="M1039.54 702.59C1052.05 702.69 1068.6 700.59 1071.94 698.59C1074.47 697.05 1075.48 691.5 1075.82 688.94L1076.19 688.94C1076.56 688.94 1075.49 697.87 1072.19 699.94C1068.89 702.01 1052.3 704.02 1039.8 703.94C1036.19 703.94 1034.94 702.63 1035.01 700.72C1035.48 701.85 1036.86 702.59 1039.54 702.59Z" />
	<path id="Layer" class="shp7" d="M745.57 331.15C738.96 328.88 732.29 326.78 725.57 324.85C726.68 320.32 727.71 315.77 728.66 311.2C743.8 237.69 733.9 178.47 700.09 158.98C667.67 140.28 614.65 159.78 561.09 206.37C555.81 210.98 550.65 215.72 545.62 220.57C542.24 217.34 538.81 214.17 535.32 211.06C479.21 161.23 423 140.24 389.18 159.79C356.79 178.54 347.18 234.21 360.83 303.88C362.16 310.78 363.69 317.64 365.42 324.46C357.47 326.72 349.78 329.13 342.42 331.7C276.63 354.59 234.61 390.59 234.61 427.88C234.61 466.39 279.72 505.02 348.25 528.44C353.81 530.33 359.41 532.08 365.05 533.7C363.22 541.03 361.6 548.43 360.17 555.88C347.17 624.34 357.33 678.7 389.63 697.33C423 716.59 479 696.79 533.52 649.13C537.83 645.36 542.15 641.36 546.52 637.18C551.97 642.44 557.57 647.55 563.31 652.5C616.13 697.95 668.31 716.31 700.57 697.62C733.9 678.33 744.73 619.93 730.67 548.89C729.6 543.46 728.36 537.93 726.94 532.28C730.88 531.12 734.73 529.92 738.5 528.67C809.74 505.07 856.1 466.91 856.1 427.88C856.1 390.45 812.72 354.26 745.6 331.15L745.57 331.15Z" />
	<path id="Layer" class="shp8" d="M730.12 503.47C726.72 504.6 723.24 505.68 719.68 506.74C717.51 500.01 715.22 493.32 712.82 486.67C710.43 480.01 707.91 473.4 705.29 466.84C702.66 460.27 699.93 453.75 697.08 447.28C694.23 440.81 691.28 434.38 688.21 428.01C691.16 421.72 694 415.39 696.74 409.01C699.48 402.62 702.11 396.2 704.63 389.73C707.16 383.26 709.57 376.74 711.87 370.19C714.18 363.64 716.38 357.05 718.46 350.43C724.81 352.27 730.99 354.21 736.93 356.26C794.44 376.05 829.52 405.32 829.52 427.88C829.52 451.88 791.63 483.09 730.12 503.47ZM704.6 554.05C710.82 585.46 711.7 613.86 707.6 636.05C703.9 656 696.46 669.3 687.26 674.63C667.67 685.96 625.79 671.23 580.62 632.36C575.44 627.9 570.23 623.15 564.99 618.11C569.7 612.9 574.31 607.61 578.84 602.24C583.37 596.88 587.81 591.44 592.15 585.92C596.5 580.4 600.75 574.81 604.9 569.15C609.06 563.5 613.12 557.77 617.08 551.97C624.16 551.37 631.22 550.65 638.28 549.81C645.33 548.96 652.37 548 659.39 546.92C666.41 545.83 673.41 544.63 680.39 543.3C687.37 541.98 694.32 540.53 701.25 538.97C702.52 544.09 703.64 549.09 704.62 553.97L704.6 554.05ZM446.48 672.69C427.34 679.45 412.1 679.64 402.89 674.33C383.29 663.02 375.14 619.33 386.26 560.83C387.59 553.92 389.1 547.04 390.79 540.2C397.69 541.68 404.62 543.05 411.56 544.29C418.51 545.54 425.48 546.67 432.46 547.68C439.44 548.69 446.45 549.59 453.46 550.36C460.48 551.14 467.5 551.79 474.54 552.33C478.62 558.11 482.79 563.82 487.06 569.45C491.32 575.09 495.68 580.66 500.13 586.16C504.58 591.65 509.12 597.08 513.75 602.42C518.37 607.77 523.09 613.04 527.89 618.23C524.03 621.97 520.08 625.61 516.05 629.14C491.94 650.22 467.77 665.14 446.48 672.69L446.48 672.69ZM356.84 503.32C326.53 492.96 301.51 479.5 284.35 464.82C268.94 451.62 261.16 438.51 261.16 427.88C261.16 405.25 294.9 376.38 351.16 356.77C358.23 354.31 365.36 352.07 372.55 350.04C374.64 356.74 376.84 363.4 379.15 370.02C381.45 376.65 383.87 383.24 386.4 389.78C388.92 396.33 391.56 402.83 394.3 409.29C397.04 415.74 399.89 422.16 402.84 428.52C399.85 434.98 396.97 441.48 394.19 448.03C391.42 454.58 388.75 461.18 386.2 467.81C383.64 474.45 381.19 481.13 378.85 487.85C376.52 494.57 374.29 501.33 372.18 508.12C367.02 506.65 361.91 505.05 356.84 503.32ZM386.89 298.78C375.21 239.09 382.96 194.06 402.48 182.78C423.27 170.78 469.24 187.9 517.7 230.93C520.8 233.68 523.91 236.56 527.02 239.53C522.25 244.69 517.57 249.93 512.98 255.24C508.39 260.56 503.88 265.95 499.47 271.41C495.05 276.88 490.73 282.41 486.5 288.02C482.27 293.63 478.13 299.31 474.09 305.05C467.12 305.68 460.16 306.41 453.21 307.26C446.26 308.11 439.33 309.08 432.42 310.15C425.5 311.23 418.6 312.41 411.73 313.71C404.85 315.01 397.99 316.42 391.16 317.94C389.57 311.59 388.14 305.21 386.89 298.79L386.89 298.78ZM655 364.97C648.93 354.48 642.63 344.12 636.11 333.89C655.94 336.4 674.93 339.72 692.77 343.8C691.34 348.34 689.85 352.86 688.31 357.36C686.76 361.86 685.16 366.35 683.5 370.81C681.84 375.27 680.13 379.71 678.36 384.13C676.59 388.54 674.76 392.94 672.88 397.31C667.14 386.41 661.18 375.63 655 364.97ZM545.64 258.5C548.87 262.02 552.06 265.58 555.2 269.19C558.34 272.79 561.43 276.43 564.48 280.11C567.53 283.79 570.53 287.51 573.49 291.26C576.44 295.02 579.35 298.81 582.21 302.64C557.74 301.49 533.25 301.49 508.76 302.64C520.83 286.72 533.2 271.92 545.64 258.51L545.64 258.5ZM435.64 365.15C429.54 375.73 423.69 386.44 418.09 397.29C410.36 378.96 403.75 360.93 398.35 343.52C416.08 339.52 434.99 336.31 454.69 333.84C448.08 344.13 441.72 354.57 435.62 365.15L435.64 365.15ZM455.25 523.8C450.44 523.28 445.64 522.69 440.85 522.05C436.06 521.4 431.28 520.7 426.51 519.93C421.73 519.16 416.97 518.33 412.22 517.44C407.47 516.55 402.73 515.6 398 514.59C403.49 496.88 410.25 478.46 418.15 459.73C423.77 470.59 429.64 481.31 435.76 491.89C441.99 502.68 448.48 513.32 455.23 523.8L455.25 523.8ZM546.39 599.13C533.79 585.59 521.24 570.59 509 554.38C520.9 554.85 533.02 555.09 545.36 555.09C558.03 555.09 570.53 554.81 582.87 554.25C580.02 558.14 577.13 562 574.18 565.82C571.23 569.64 568.24 573.42 565.2 577.16C562.15 580.9 559.06 584.6 555.92 588.26C552.79 591.93 549.6 595.55 546.37 599.13L546.39 599.13ZM673.08 458.78C675.06 463.24 676.98 467.73 678.84 472.24C680.7 476.75 682.51 481.28 684.25 485.84C686 490.4 687.68 494.97 689.3 499.58C690.93 504.18 692.5 508.8 694 513.44C689.21 514.52 684.41 515.53 679.6 516.48C674.79 517.43 669.97 518.32 665.13 519.15C660.29 519.97 655.45 520.73 650.59 521.43C645.74 522.13 640.87 522.76 636 523.33C642.57 512.91 648.93 502.37 655.08 491.7C661.33 480.86 667.33 469.89 673.08 458.78ZM632.08 478.44C622.67 494.79 612.73 510.82 602.27 526.54C583.83 527.86 564.78 528.54 545.36 528.54C525.94 528.54 507.21 527.94 489.09 526.76C478.36 511.09 468.23 495.04 458.7 478.59C458.7 478.59 449.86 461.9 432.19 428.51C440.37 411.49 449.18 394.79 458.62 378.41L458.62 378.41C468.05 362.04 478.09 346.04 488.75 330.41C507.24 329.01 526.18 328.28 545.34 328.28C564.5 328.28 583.56 329.02 602.03 330.42C612.57 346 622.57 361.94 632.03 378.23C632.03 378.23 640.96 394.85 658.82 428.1C650.52 445.18 641.62 461.95 632.11 478.4L632.08 478.44ZM686.85 181.98C707.66 193.98 715.75 242.38 702.68 305.85C701.82 309.98 700.89 314.09 699.88 318.2C693.04 316.65 686.17 315.21 679.28 313.89C672.39 312.56 665.48 311.35 658.55 310.26C651.62 309.16 644.68 308.18 637.71 307.32C630.75 306.45 623.78 305.7 616.79 305.07C612.79 299.32 608.69 293.64 604.49 288.03C600.3 282.42 596.01 276.87 591.63 271.41C587.25 265.94 582.77 260.55 578.21 255.23C573.65 249.91 569 244.67 564.26 239.51C568.93 235.02 573.69 230.65 578.55 226.4C624.43 186.47 667.31 170.71 686.85 181.98Z" />
	<path id="Layer" class="shp7" d="M545.34 372.38C567.79 372.38 588.02 385.9 596.62 406.64C605.21 427.38 600.46 451.25 584.58 467.12C568.71 483 544.84 487.75 524.1 479.16C503.36 470.56 489.84 450.33 489.84 427.88C489.84 420.59 491.27 413.37 494.06 406.64C496.85 399.91 500.94 393.79 506.09 388.63C511.25 383.48 517.37 379.39 524.1 376.6C530.83 373.81 538.05 372.38 545.34 372.38" />
	<path id="Layer" class="shp1" d="M559.26 20.4C559.26 27.11 555.22 33.17 549.01 35.74C542.81 38.31 535.67 36.89 530.92 32.14C526.17 27.39 524.75 20.25 527.32 14.05C529.89 7.84 535.95 3.8 542.66 3.8C544.84 3.79 547.01 4.21 549.03 5.04C551.04 5.87 552.88 7.09 554.42 8.64C555.97 10.18 557.19 12.02 558.02 14.03C558.85 16.05 559.27 18.22 559.26 20.4Z" />
	<path id="Layer" class="shp1" d="M529.4 24.59C528.08 22.21 527.37 19.55 527.32 16.83C527.28 14.11 527.9 11.43 529.13 9C530.36 6.58 532.17 4.5 534.4 2.94C536.62 1.38 539.19 0.39 541.89 0.05C537.27 -0.11 532.79 1.66 529.53 4.95C526.27 8.23 524.53 12.72 524.72 17.35C524.92 21.97 527.04 26.3 530.56 29.29C534.09 32.29 538.71 33.67 543.3 33.12C541.88 33.07 540.47 32.83 539.11 32.42C537.75 32.01 536.44 31.42 535.23 30.68C534.02 29.94 532.91 29.04 531.92 28.01C530.94 26.98 530.09 25.83 529.4 24.59L529.4 24.59Z" />
	<path id="Layer" class="shp1" d="M521.91 43.52L566.38 43.52L566.38 112.89L521.91 112.89L521.91 43.52Z" />
	<path id="Layer" class="shp2" d="M521.91 43.52L566.38 43.52L566.38 112.89L521.91 112.89L521.91 43.52Z" />
	<path id="Layer" class="shp9" d="M451.66 295.2C451.66 295.2 446.91 308.25 435.66 310.03C424.41 311.81 417.87 314.77 417.87 314.77L444.55 331.96L458.78 330.18C473.01 328.4 460.56 311.8 466.49 307.65C472.42 303.5 451.66 295.2 451.66 295.2Z" />
	<path id="Layer" class="shp9" d="M644.34 295.2C644.34 295.2 649.09 308.25 660.34 310.03C671.59 311.81 678.13 314.77 678.13 314.77L651.45 331.96L637.22 330.18C622.99 328.4 635.44 311.8 629.51 307.65C623.58 303.5 644.34 295.2 644.34 295.2Z" />
	<path id="Layer" class="shp1" d="M514.5 180.18C514.5 180.18 507.39 183.74 505.02 190.86C505.02 190.86 492.02 195.01 484.86 206.27C484.86 206.27 475.96 215.76 474.78 220.5C473.6 225.24 460 253.7 460 253.7C460 253.7 446.36 298.17 439.25 302.91C439.25 302.91 461.78 298.17 465.93 320.7C465.93 320.7 471.26 320.7 477.19 299.95C483.12 279.2 497.35 253.7 497.35 253.7C497.35 253.7 502.09 235.92 506.24 232.95C510.39 229.98 516.91 216.35 522.84 219.95C528.77 223.55 567.9 219.35 567.9 219.35C567.9 219.35 591 229.99 591.58 237.1C592.16 244.21 596.32 244.81 596.91 250.74C597.5 256.67 619.44 303.5 619.44 303.5C619.44 303.5 623.59 316.5 624.78 319.5C624.78 319.5 637.78 288.08 655.02 305.87C655.02 305.87 654.42 294.01 649.09 286.87C643.76 279.73 620.63 224.03 620.63 224.03C620.63 224.03 618.26 215.73 615.89 213.36C613.52 210.99 595.13 192.01 588.61 192.01C588.61 192.01 585.06 183.12 580.91 181.93L514.5 180.18Z" />
	<path id="Layer" class="shp1" d="M461.14 326.03C458.83 326.96 456.42 327.58 453.95 327.89C451.49 328.2 448.99 328.18 446.53 327.85C444.07 327.52 441.66 326.88 439.36 325.93C437.06 324.98 434.9 323.74 432.92 322.24C431.96 321.5 430.97 320.79 429.96 320.11C428.95 319.44 427.91 318.79 426.86 318.18C425.81 317.57 424.74 317 423.65 316.46C422.56 315.91 421.45 315.41 420.33 314.94C414.04 312.4 406.52 310.52 404.23 314.77C400.08 322.48 454.62 341.45 454.62 341.45C454.62 341.45 461.74 337.3 461.14 326.03Z" />
	<path id="Layer" class="shp1" d="M634.86 326.03C637.17 326.96 639.58 327.58 642.05 327.89C644.51 328.2 647.01 328.18 649.47 327.85C651.93 327.52 654.34 326.88 656.64 325.93C658.94 324.98 661.1 323.74 663.08 322.24C664.04 321.5 665.03 320.79 666.04 320.11C667.05 319.44 668.09 318.79 669.14 318.18C670.19 317.57 671.26 317 672.35 316.46C673.44 315.91 674.55 315.41 675.67 314.94C681.96 312.4 689.48 310.52 691.77 314.77C695.92 322.48 641.38 341.45 641.38 341.45C641.38 341.45 634.26 337.3 634.86 326.03Z" />
	<path id="Layer" class="shp9" d="M533.88 82.67C533.66 84.73 532.98 86.96 531.22 88.05C529.78 88.95 527.96 88.88 526.3 89.22C525.43 89.44 524.59 89.76 523.8 90.17C523 90.58 522.26 91.09 521.58 91.67C520.91 92.26 520.3 92.92 519.78 93.65C519.26 94.38 518.82 95.16 518.48 95.99C518.15 96.82 517.88 97.68 517.68 98.55C517.48 99.43 517.35 100.31 517.29 101.21C517.23 102.1 517.23 103 517.3 103.89C517.38 104.78 517.52 105.67 517.73 106.54C517.83 106.97 517.93 107.4 518.05 107.82C518.16 108.25 518.28 108.67 518.4 109.1C518.53 109.52 518.67 109.94 518.81 110.35C518.95 110.77 519.1 111.19 519.25 111.6C520.99 116.52 523.09 121.4 526.34 125.49C527.03 126.3 527.75 127.1 528.48 127.87C529.22 128.64 529.98 129.4 530.75 130.13C531.53 130.86 532.32 131.57 533.14 132.26C533.95 132.95 534.79 133.62 535.64 134.26C537.75 135.98 539.93 137.73 542.53 138.54C542.97 138.66 543.41 138.76 543.86 138.85C544.31 138.94 544.76 139.01 545.21 139.07C545.66 139.13 546.11 139.18 546.57 139.21C547.02 139.24 547.47 139.26 547.93 139.26C550.18 139.36 552.58 139.43 554.53 138.31C557.53 136.58 558.42 132.76 560.05 129.69C561.43 127.09 563.49 124.88 564.78 122.23C565.01 121.71 565.22 121.18 565.42 120.65C565.62 120.11 565.8 119.57 565.97 119.03C566.14 118.48 566.29 117.93 566.42 117.38C566.56 116.83 566.68 116.27 566.78 115.71L569.55 103.41C570.55 98.94 571.47 93.9 568.96 90.07C568.91 89.99 568.86 89.92 568.81 89.85C568.76 89.77 568.7 89.71 568.64 89.64C568.57 89.58 568.51 89.52 568.44 89.46C568.37 89.4 568.3 89.35 568.22 89.3C568.1 89.25 567.98 89.21 567.85 89.18C567.73 89.15 567.6 89.13 567.47 89.12C567.34 89.11 567.21 89.1 567.08 89.11C566.96 89.11 566.83 89.13 566.7 89.15C565.91 89.2 565.11 89.2 564.32 89.13C563.53 89.07 562.75 88.95 561.97 88.77C561.2 88.6 560.44 88.36 559.7 88.08C558.96 87.79 558.24 87.45 557.55 87.06C557.44 87 557.34 86.94 557.23 86.88C557.13 86.81 557.03 86.74 556.93 86.66C556.84 86.59 556.74 86.51 556.65 86.42C556.57 86.34 556.48 86.25 556.4 86.16C556.3 86 556.21 85.84 556.13 85.67C556.05 85.5 555.98 85.32 555.92 85.14C555.86 84.96 555.82 84.78 555.78 84.6C555.74 84.41 555.72 84.23 555.7 84.04C555.63 83.66 555.55 83.28 555.47 82.9C555.38 82.53 555.28 82.15 555.18 81.78C555.07 81.41 554.95 81.04 554.83 80.68C554.7 80.31 554.57 79.95 554.42 79.59C554.38 79.46 554.33 79.34 554.27 79.21C554.21 79.09 554.15 78.97 554.08 78.86C554 78.75 553.92 78.64 553.83 78.54C553.75 78.44 553.65 78.34 553.55 78.25C553.44 78.18 553.33 78.12 553.22 78.07C553.11 78.02 552.99 77.97 552.87 77.93C552.75 77.89 552.63 77.86 552.51 77.83C552.39 77.81 552.26 77.79 552.14 77.78C551.07 77.61 550 77.45 548.92 77.3C547.85 77.16 546.77 77.03 545.69 76.92C544.62 76.81 543.54 76.71 542.46 76.63C541.37 76.55 540.29 76.48 539.21 76.43C537.79 76.36 535.65 75.79 534.67 77.05C533.69 78.31 534 81.17 533.88 82.67Z" />
	<path id="Layer" class="shp2" d="M533.88 82.67C533.66 84.73 532.98 86.96 531.22 88.05C529.78 88.95 527.96 88.88 526.3 89.22C525.43 89.44 524.59 89.76 523.8 90.17C523 90.58 522.26 91.09 521.58 91.67C520.91 92.26 520.3 92.92 519.78 93.65C519.26 94.38 518.82 95.16 518.48 95.99C518.15 96.82 517.88 97.68 517.68 98.55C517.48 99.43 517.35 100.31 517.29 101.21C517.23 102.1 517.23 103 517.3 103.89C517.38 104.78 517.52 105.67 517.73 106.54C517.83 106.97 517.93 107.4 518.05 107.82C518.16 108.25 518.28 108.67 518.4 109.1C518.53 109.52 518.67 109.94 518.81 110.35C518.95 110.77 519.1 111.19 519.25 111.6C520.99 116.52 523.09 121.4 526.34 125.49C527.03 126.3 527.75 127.1 528.48 127.87C529.22 128.64 529.98 129.4 530.75 130.13C531.53 130.86 532.32 131.57 533.14 132.26C533.95 132.95 534.79 133.62 535.64 134.26C537.75 135.98 539.93 137.73 542.53 138.54C542.97 138.66 543.41 138.76 543.86 138.85C544.31 138.94 544.76 139.01 545.21 139.07C545.66 139.13 546.11 139.18 546.57 139.21C547.02 139.24 547.47 139.26 547.93 139.26C550.18 139.36 552.58 139.43 554.53 138.31C557.53 136.58 558.42 132.76 560.05 129.69C561.43 127.09 563.49 124.88 564.78 122.23C565.01 121.71 565.22 121.18 565.42 120.65C565.62 120.11 565.8 119.57 565.97 119.03C566.14 118.48 566.29 117.93 566.42 117.38C566.56 116.83 566.68 116.27 566.78 115.71L569.55 103.41C570.55 98.94 571.47 93.9 568.96 90.07C568.91 89.99 568.86 89.92 568.81 89.85C568.76 89.77 568.7 89.71 568.64 89.64C568.57 89.58 568.51 89.52 568.44 89.46C568.37 89.4 568.3 89.35 568.22 89.3C568.1 89.25 567.98 89.21 567.85 89.18C567.73 89.15 567.6 89.13 567.47 89.12C567.34 89.11 567.21 89.1 567.08 89.11C566.96 89.11 566.83 89.13 566.7 89.15C565.91 89.2 565.11 89.2 564.32 89.13C563.53 89.07 562.75 88.95 561.97 88.77C561.2 88.6 560.44 88.36 559.7 88.08C558.96 87.79 558.24 87.45 557.55 87.06C557.44 87 557.34 86.94 557.23 86.88C557.13 86.81 557.03 86.74 556.93 86.66C556.84 86.59 556.74 86.51 556.65 86.42C556.57 86.34 556.48 86.25 556.4 86.16C556.3 86 556.21 85.84 556.13 85.67C556.05 85.5 555.98 85.32 555.92 85.14C555.86 84.96 555.82 84.78 555.78 84.6C555.74 84.41 555.72 84.23 555.7 84.04C555.63 83.66 555.55 83.28 555.47 82.9C555.38 82.53 555.28 82.15 555.18 81.78C555.07 81.41 554.95 81.04 554.83 80.68C554.7 80.31 554.57 79.95 554.42 79.59C554.38 79.46 554.33 79.34 554.27 79.21C554.21 79.09 554.15 78.97 554.08 78.86C554 78.75 553.92 78.64 553.83 78.54C553.75 78.44 553.65 78.34 553.55 78.25C553.44 78.18 553.33 78.12 553.22 78.07C553.11 78.02 552.99 77.97 552.87 77.93C552.75 77.89 552.63 77.86 552.51 77.83C552.39 77.81 552.26 77.79 552.14 77.78C551.07 77.61 550 77.45 548.92 77.3C547.85 77.16 546.77 77.03 545.69 76.92C544.62 76.81 543.54 76.71 542.46 76.63C541.37 76.55 540.29 76.48 539.21 76.43C537.79 76.36 535.65 75.79 534.67 77.05C533.69 78.31 534 81.17 533.88 82.67Z" />
	<path id="Layer" class="shp4" d="M525.85 89.74C525.27 89.57 524.69 89.41 524.1 89.28C523.51 89.15 522.92 89.03 522.32 88.94C521.73 88.85 521.13 88.77 520.53 88.72C519.93 88.67 519.32 88.63 518.72 88.62C513 88.48 506.88 90.45 503.58 95.12C503.02 95.95 502.55 96.84 502.17 97.76C501.79 98.69 501.49 99.65 501.3 100.63C501.1 101.61 501 102.61 501 103.61C501 104.61 501.1 105.61 501.29 106.59C501.49 107.57 501.75 108.54 502.07 109.48C502.39 110.43 502.77 111.35 503.21 112.25C503.65 113.15 504.14 114.02 504.69 114.86C505.24 115.69 505.84 116.49 506.49 117.25C506.87 117.65 507.23 118.06 507.59 118.48C507.95 118.9 508.29 119.33 508.63 119.77C508.96 120.2 509.28 120.65 509.59 121.1C509.9 121.56 510.2 122.02 510.49 122.49C512.07 125.49 512.12 129.08 512.55 132.49C513.55 140.61 517.01 148.24 518.38 156.31C519.75 164.38 518.57 173.73 512.2 178.86C511.13 179.72 509.83 180.63 509.74 182C509.6 184.19 512.45 185.12 514.64 185.33C521.19 185.95 527.91 186.56 534.27 184.87C536.9 184.17 539.44 183.08 542.12 182.58C548.92 181.31 555.76 183.92 562.57 185.17C563.8 185.37 565.04 185.55 566.28 185.7C567.51 185.86 568.76 185.98 570 186.08C571.24 186.18 572.49 186.26 573.74 186.31C574.98 186.36 576.23 186.38 577.48 186.38C577.77 186.41 578.06 186.42 578.35 186.41C578.64 186.4 578.93 186.38 579.22 186.34C579.51 186.31 579.79 186.25 580.08 186.18C580.36 186.11 580.64 186.03 580.91 185.93C581.18 185.82 581.43 185.68 581.66 185.49C581.88 185.31 582.07 185.09 582.23 184.84C582.38 184.6 582.5 184.33 582.57 184.05C582.64 183.77 582.67 183.48 582.65 183.19C582.59 183 582.53 182.82 582.45 182.64C582.37 182.46 582.28 182.29 582.18 182.12C582.08 181.95 581.97 181.79 581.86 181.63C581.74 181.48 581.61 181.33 581.47 181.19C578.03 176.94 576.98 171.29 576.04 165.9L572.89 147.79C571.2 138.11 569.63 127.59 574.21 118.9C577.5 112.65 583.57 108.25 587.04 102.1C587.34 101.64 587.6 101.15 587.82 100.65C588.04 100.15 588.21 99.62 588.35 99.09C588.48 98.56 588.56 98.01 588.61 97.47C588.65 96.92 588.64 96.37 588.59 95.82C588.07 92.73 585.28 90.52 582.42 89.23C581.06 88.62 579.64 88.14 578.19 87.8C576.74 87.47 575.26 87.27 573.77 87.21C572.28 87.16 570.79 87.25 569.32 87.48C567.85 87.71 566.4 88.08 565 88.59C565.1 92.92 564 97.3 563.29 101.59L562.08 108.59C561.93 109.62 561.75 110.65 561.56 111.67C561.37 112.7 561.17 113.72 560.94 114.74C560.71 115.76 560.47 116.77 560.21 117.78C559.95 118.79 559.67 119.79 559.37 120.79C559.26 121.19 559.14 121.58 558.99 121.97C558.84 122.35 558.68 122.73 558.5 123.1C558.32 123.48 558.12 123.84 557.9 124.19C557.68 124.54 557.45 124.88 557.2 125.21C556.93 125.51 556.65 125.79 556.36 126.05C556.06 126.32 555.75 126.57 555.43 126.81C555.11 127.04 554.78 127.26 554.43 127.46C554.09 127.66 553.73 127.84 553.37 128C552.58 128.38 551.78 128.72 550.95 129.01C550.13 129.31 549.29 129.55 548.43 129.75C547.58 129.94 546.72 130.09 545.85 130.18C544.98 130.28 544.1 130.32 543.23 130.32C542.85 130.33 542.47 130.32 542.09 130.29C541.71 130.26 541.34 130.22 540.96 130.16C540.59 130.11 540.21 130.03 539.84 129.94C539.48 129.85 539.11 129.75 538.75 129.63C538.17 129.38 537.6 129.09 537.05 128.78C536.5 128.47 535.97 128.13 535.45 127.77C534.93 127.41 534.43 127.02 533.95 126.6C533.47 126.19 533.02 125.75 532.58 125.29C532.43 125.16 532.28 125.02 532.13 124.88C531.99 124.75 531.85 124.6 531.71 124.45C531.58 124.31 531.44 124.15 531.32 124C531.19 123.84 531.07 123.68 530.95 123.52C530.83 123.31 530.71 123.1 530.6 122.88C530.49 122.67 530.39 122.45 530.3 122.23C530.2 122 530.12 121.78 530.04 121.55C529.97 121.32 529.9 121.08 529.84 120.85C529.64 120.24 529.45 119.62 529.26 119.01C529.08 118.39 528.91 117.77 528.75 117.14C528.6 116.52 528.45 115.89 528.31 115.26C528.17 114.63 528.05 114 527.93 113.37C527.63 111.43 527.53 109.46 527.39 107.5C527 101.71 527 95.31 525.85 89.74Z" />
	<path id="Layer" class="shp9" d="M519.84 204.49C519.84 204.49 517.47 235.92 532.29 241.25C547.11 246.58 534.07 215.16 534.07 215.16L529.32 205.68L519.84 204.49Z" />
	<path id="Layer" class="shp9" d="M570.23 204.49C570.23 204.49 572.6 235.92 557.78 241.25C542.96 246.58 556 215.16 556 215.16L560.75 205.68L570.23 204.49Z" />
	<path id="Layer" class="shp2" d="M506.79 99.59L502.05 107.3C497.31 115.01 506.2 133.98 506.79 138.72C506.92 139.57 507.06 140.43 507.23 141.28C507.39 142.12 507.57 142.97 507.77 143.81C507.97 144.65 508.18 145.49 508.42 146.32C508.65 147.15 508.9 147.98 509.17 148.8C509.44 149.62 509.76 163.03 509.76 168.37C509.76 173.71 512.76 182.6 512.76 182.6C512.86 183.86 513.01 185.11 513.18 186.36C513.36 187.61 513.58 188.86 513.83 190.1C514.08 191.34 514.36 192.57 514.69 193.79C515.01 195.01 515.37 196.22 515.76 197.42C518.13 203.94 520.5 211.65 520.5 211.65C520.5 211.65 523.5 203.35 535.32 215.8C535.98 215.13 536.5 214.35 536.85 213.48C537.2 212.62 537.39 211.69 537.39 210.76C537.39 209.83 537.2 208.9 536.85 208.04C536.5 207.17 535.98 206.39 535.32 205.72C534.66 205.05 531.77 189.72 531.77 181.41C531.77 173.1 525.24 133.41 525.24 133.41C525.24 133.41 521 88.29 506.79 99.59Z" />
	<path id="Layer" class="shp4" d="M505.61 98.96L500.87 106.67C496.13 114.38 505.02 133.35 505.61 138.09C505.74 138.94 505.88 139.8 506.05 140.65C506.21 141.49 506.39 142.34 506.59 143.18C506.79 144.02 507.01 144.86 507.24 145.69C507.48 146.52 507.73 147.35 508 148.17C508.27 148.99 508.59 162.4 508.59 167.73C508.59 173.06 511.59 181.96 511.59 181.96C511.69 183.22 511.83 184.47 512.01 185.72C512.19 186.98 512.4 188.22 512.65 189.46C512.91 190.7 513.19 191.93 513.51 193.15C513.84 194.37 514.2 195.58 514.59 196.78C516.96 203.31 519.34 211.01 519.34 211.01C519.34 211.01 522.34 202.71 534.16 215.16C534.81 214.49 535.33 213.71 535.69 212.85C536.04 211.98 536.22 211.06 536.22 210.12C536.22 209.19 536.04 208.27 535.69 207.4C535.33 206.54 534.81 205.76 534.16 205.09C533.51 204.42 530.6 189.09 530.6 180.78C530.6 172.47 524.08 132.78 524.08 132.78C524.08 132.78 519.84 87.69 505.61 98.96Z" />
	<path id="Layer" class="shp2" d="M583.87 94.81L586.87 98.34C589.87 101.87 590.36 118.52 582.65 144.02L580.28 167.14C577.91 190.26 576.13 186.71 575.54 191.45C574.95 196.19 574.95 196.78 573.76 198.56C573.58 198.77 573.44 199 573.34 199.26C573.25 199.52 573.2 199.79 573.2 200.06C573.2 200.33 573.25 200.6 573.34 200.86C573.44 201.12 573.58 201.35 573.76 201.56L570.2 214.56C566.64 227.56 564.87 208.04 554.2 216.34C554.2 216.34 551.2 211.6 553.6 207.45C556 203.3 555.97 201.52 555.38 200.33C554.79 199.14 557.75 193.22 557.75 192.03C557.75 190.84 561.93 163.59 561.93 163.59C561.93 163.59 563.71 136.91 565.49 128.02C566.58 122.55 566.56 110.36 566.37 101.78C566.18 92.84 577 88 583.37 94.28C583.52 94.44 583.7 94.59 583.87 94.81Z" />
	<path id="Layer" class="shp4" d="M585.65 93.59L588.65 97.12C591.65 100.65 592.14 117.31 584.43 142.8L582.06 165.92C579.69 189.04 577.91 185.49 577.32 190.23C576.73 194.97 576.72 195.57 575.54 197.35C575.36 197.56 575.22 197.79 575.12 198.05C575.03 198.31 574.98 198.58 574.98 198.85C574.98 199.12 575.03 199.39 575.12 199.65C575.22 199.91 575.36 200.14 575.54 200.35L572 213.39C568.46 226.43 566.67 206.86 556 215.16C556 215.16 553 210.42 555.41 206.27C557.82 202.12 557.78 200.34 557.19 199.16C556.6 197.98 559.56 192.04 559.56 190.86C559.56 189.68 563.71 162.4 563.71 162.4C563.71 162.4 565.49 135.72 567.27 126.82C569.05 117.92 567.86 91.25 567.86 91.25C567.86 91.25 577.35 84.73 585.65 93.59Z" />
	<path id="Layer" class="shp9" d="M545.92 85.33C532.8 85.33 522.2 74.73 522.2 61.61C522.2 48.49 532.8 37.89 545.92 37.89C559.04 37.89 569.64 48.49 569.64 61.61C569.64 74.73 559.04 85.33 545.92 85.33Z" />
	<path id="Layer" class="shp2" d="M558.29 26C557.15 29.18 555.06 31.94 552.31 33.91C549.56 35.87 546.28 36.95 542.9 37C539.52 37.05 536.2 36.06 533.4 34.17C530.59 32.29 528.43 29.59 527.2 26.44C536.46 22.71 545.92 26.03 545.92 26.03C550.65 24.37 554.75 24.52 558.29 26Z" />
	<path id="Layer" class="shp1" d="M545.92 27.22C545.92 27.22 500.27 11.22 511.54 88.88C511.54 88.88 521.62 95.4 529.32 91.25C529.32 91.25 523.99 37.3 544.74 39.67C565.49 42.04 561.93 90.07 561.93 90.07C561.93 90.07 573.79 93.62 577.35 87.07C580.91 80.52 576.16 16.59 545.92 27.22Z" />
	<path id="Layer" class="shp2" d="M544.74 36.11C530.5 34.49 528.54 59.38 528.74 75.16C528.91 59.47 531.55 38.16 544.74 39.67C559.55 41.36 561.98 66.33 562.15 80.47C562.32 67.49 560.9 37.96 544.74 36.11Z" />
	<path id="Layer" class="shp2" d="M511.54 85.32C511.28 83.62 511.05 81.92 510.85 80.21C510.65 78.51 510.47 76.8 510.32 75.08C510.18 73.37 510.06 71.66 509.96 69.94C509.87 68.23 509.81 66.51 509.77 64.79C509.76 66.81 509.79 68.82 509.85 70.83C509.92 72.85 510.03 74.86 510.18 76.87C510.32 78.88 510.51 80.89 510.74 82.89C510.97 84.89 511.23 86.89 511.54 88.88C511.85 90.87 521.62 95.4 529.32 91.25C529.32 91.25 529.2 89.97 529.06 87.82C521.39 91.69 511.54 85.32 511.54 85.32Z" />
	<path id="Layer" class="shp2" d="M577.35 83.59C574.03 89.67 563.52 87 562.1 86.59C562.03 88.79 561.93 90.11 561.93 90.11C561.93 90.11 573.79 93.66 577.35 87.11C578.08 85.77 578.46 81.98 578.35 76.91C578.25 80.16 577.9 82.59 577.35 83.59Z" />
	<path id="Layer" class="shp3" d="M826.73 672.96C831.47 664.18 826.09 653.42 819.91 645.59C813.73 637.76 806.18 629.59 806.34 619.59C806.57 605.24 821.79 596.78 833.96 589.17C836.21 587.76 838.42 586.29 840.59 584.75C842.75 583.21 844.87 581.6 846.95 579.94C849.02 578.27 851.04 576.55 853.01 574.76C854.97 572.98 856.89 571.14 858.75 569.24C861.75 566.19 864.62 562.93 866.37 559.03C868.89 553.43 868.82 547.03 868.66 540.91C868.13 520.44 867.13 499.99 865.66 479.57" />
	<path id="Layer" class="shp4" d="M888.74 478.49C888.65 476.62 888.34 474.78 887.79 472.99C887.25 471.21 886.48 469.5 885.51 467.9C884.53 466.31 883.37 464.84 882.03 463.54C880.69 462.23 879.2 461.1 877.58 460.17L872.58 470.07L872.73 458.07C863.4 455.31 853.35 458.9 847.88 466.95C842.41 475 842.77 485.66 848.78 493.32C854.78 500.98 865.05 503.88 874.17 500.49C883.3 497.1 889.18 488.2 888.73 478.48L888.74 478.49Z" />
	<path id="Layer" class="shp4" d="M848.86 629.88C844.02 639.28 833.26 644.01 823.07 641.22C812.87 638.43 806.02 628.87 806.66 618.32C807.29 607.76 815.23 599.09 825.69 597.54C836.15 595.98 846.26 601.97 849.94 611.88L835.94 623.25L851.31 619.68C851.31 620.56 851.26 621.44 851.16 622.32C851.06 623.2 850.9 624.07 850.69 624.93C850.49 625.78 850.23 626.63 849.92 627.46C849.62 628.29 849.26 629.09 848.86 629.88L848.86 629.88Z" />
	<path id="Layer" class="shp4" d="M837.81 586.45C832.34 586.68 826.97 584.9 822.73 581.44C818.48 577.98 815.65 573.08 814.78 567.67C813.91 562.26 815.05 556.72 817.98 552.1C820.92 547.48 825.45 544.09 830.72 542.59L830.6 551.81L835.66 541.81L835.72 541.81C841.67 541.49 847.51 543.56 851.93 547.55C856.35 551.55 858.99 557.15 859.27 563.1C859.55 569.06 857.44 574.88 853.41 579.27C849.38 583.66 843.77 586.26 837.81 586.5L837.81 586.45Z" />
	<path id="Layer" class="shp4" d="M892.11 550.32C885.1 550.65 878.34 547.66 873.85 542.26C869.37 536.86 867.68 529.66 869.29 522.83C870.91 516 875.64 510.32 882.07 507.49C888.49 504.67 895.87 505.03 902 508.46L898 519.29L906.13 511.49C909.38 514.48 911.68 518.36 912.73 522.65C913.79 526.94 913.54 531.44 912.04 535.6C910.54 539.75 907.83 543.36 904.28 545.98C900.72 548.6 896.47 550.11 892.06 550.32L892.11 550.32Z" />
	<path id="Layer" class="shp2" d="M885.74 484.45C880.57 485.02 875.55 486.63 870.37 486.95C865.19 487.27 859.5 486.03 856.23 481.95C854.46 479.78 853.58 477.04 852.09 474.67C851.74 474.12 851.35 473.6 850.94 473.1C850.52 472.6 850.07 472.12 849.6 471.67C849.13 471.23 848.63 470.81 848.1 470.43C847.58 470.04 847.03 469.69 846.46 469.37C843.54 475.11 843.24 481.82 845.62 487.8C848.01 493.78 852.85 498.44 858.92 500.59C864.98 502.75 871.68 502.18 877.3 499.05C882.92 495.91 886.92 490.5 888.27 484.21C887.42 484.3 886.58 484.36 885.74 484.45Z" />
	<path id="Layer" class="shp2" d="M892.11 550.32C888.25 550.5 884.42 549.67 880.98 547.93C877.53 546.19 874.6 543.59 872.46 540.38C870.32 537.17 869.04 533.46 868.76 529.61C868.47 525.76 869.19 521.9 870.83 518.41C871.27 518.71 871.7 519.03 872.12 519.37C872.53 519.71 872.92 520.07 873.3 520.44C873.68 520.82 874.04 521.22 874.38 521.63C874.72 522.05 875.03 522.48 875.33 522.92C876.92 525.32 877.89 528.1 879.76 530.31C883.24 534.4 889.2 535.74 894.6 535.5C900 535.26 905.2 533.72 910.6 533.22C911.35 533.16 912.1 533.11 912.86 533.09C912.31 535.44 911.38 537.69 910.1 539.75C908.83 541.8 907.23 543.64 905.37 545.18C903.51 546.73 901.42 547.96 899.16 548.83C896.91 549.71 894.53 550.21 892.11 550.32Z" />
	<path id="Layer" class="shp2" d="M837.81 586.45C833.99 586.63 830.19 585.83 826.78 584.12C823.36 582.41 820.43 579.86 818.28 576.7C816.13 573.54 814.82 569.89 814.48 566.08C814.15 562.28 814.79 558.45 816.35 554.96C816.81 555.26 817.26 555.58 817.69 555.93C818.12 556.27 818.53 556.63 818.93 557.02C819.32 557.4 819.7 557.8 820.06 558.21C820.42 558.63 820.76 559.06 821.08 559.51C822.82 561.96 823.9 564.78 825.94 567.05C829.71 571.25 836.05 572.73 841.77 572.59C847.31 572.47 852.64 571.11 858.15 570.69C857.48 572.88 856.47 574.95 855.17 576.83C853.87 578.72 852.28 580.39 850.47 581.79C848.66 583.19 846.65 584.31 844.5 585.1C842.35 585.89 840.1 586.34 837.81 586.45L837.81 586.45Z" />
	<path id="Layer" class="shp2" d="M848.86 629.88C846.27 635.02 841.79 638.96 836.37 640.89C830.94 642.81 824.98 642.57 819.73 640.22C814.48 637.86 810.34 633.57 808.17 628.24C806 622.91 805.97 616.94 808.08 611.59C808.54 611.89 808.99 612.21 809.43 612.55C809.86 612.88 810.29 613.23 810.7 613.6C811.11 613.96 811.51 614.35 811.89 614.74C812.27 615.14 812.64 615.55 812.99 615.97C815.12 618.56 816.52 621.5 818.99 623.91C823.56 628.4 830.94 630.25 837.51 630.42C838.46 630.43 839.4 630.43 840.35 630.41C841.3 630.39 842.25 630.36 843.19 630.32C844.14 630.27 845.08 630.21 846.03 630.14C846.97 630.07 847.92 629.98 848.86 629.88L848.86 629.88Z" />
	<path id="Layer" class="shp5" d="M793 662.85C793 662.85 810.65 662.31 816 658.52C821.35 654.73 843.16 650.21 844.48 656.28C845.8 662.35 871.01 686.5 851.08 686.66C831.15 686.82 804.77 683.56 799.46 680.32C794.15 677.08 793 662.85 793 662.85Z" />
	<path id="Layer" class="shp6" d="M851.4 684.59C831.47 684.75 805.09 681.48 799.78 678.25C795.78 675.78 794.13 666.95 793.59 662.87L793 662.87C792.41 662.87 794.12 677.11 799.43 680.34C804.74 683.57 831.12 686.84 851.05 686.68C856.8 686.68 858.79 684.59 858.68 681.56C857.88 683.37 855.69 684.51 851.4 684.59Z" />
	<path id="Layer" class="shp0" d="M323 42.86L304.75 54.43L315.83 34.28C315.06 33.66 314.23 33.11 313.36 32.62C312.5 32.14 311.59 31.73 310.66 31.39C309.72 31.06 308.76 30.8 307.79 30.62C306.81 30.45 305.82 30.35 304.83 30.34L304.53 30.34C304.21 30.34 303.9 30.34 303.58 30.33C303.27 30.32 302.95 30.31 302.63 30.28C302.32 30.26 302 30.23 301.69 30.19C301.38 30.16 301.06 30.11 300.75 30.06L294.56 33.98L297.21 29.16C296.12 28.78 295.07 28.32 294.05 27.77C293.04 27.23 292.07 26.6 291.15 25.91C290.24 25.21 289.37 24.45 288.58 23.62C287.78 22.79 287.05 21.89 286.39 20.95L275.32 27.95L282.32 15.23C275.84 7.46 267.12 2.69 257.51 2.69C246 2.69 235.75 9.54 229.13 20.21C228.16 21.8 226.98 23.25 225.62 24.53C224.27 25.81 222.75 26.91 221.11 27.79C219.47 28.68 217.72 29.34 215.91 29.77C214.09 30.2 212.23 30.39 210.37 30.33L209.75 30.33C197.04 30.33 186.75 44.74 186.75 62.52C186.75 80.3 197.05 94.7 209.75 94.7C210.44 94.7 211.14 94.65 211.83 94.57C212.52 94.48 213.2 94.35 213.87 94.19C214.55 94.02 215.21 93.81 215.86 93.56C216.5 93.31 217.14 93.02 217.75 92.7C226.04 88.39 236.92 88.31 245.6 92.16C247.46 92.99 249.39 93.63 251.38 94.06C253.37 94.49 255.4 94.71 257.43 94.71C259.47 94.72 261.5 94.51 263.49 94.09C265.48 93.67 267.42 93.04 269.28 92.21C277.9 88.44 288.65 88.52 296.89 92.75C297.5 93.07 298.13 93.36 298.77 93.6C299.41 93.85 300.07 94.06 300.73 94.23C301.4 94.4 302.08 94.52 302.76 94.61C303.44 94.7 304.13 94.74 304.82 94.75C317.53 94.75 327.82 80.34 327.82 62.57C327.84 60.86 327.75 59.15 327.56 57.45C327.36 55.76 327.06 54.07 326.65 52.41C326.25 50.75 325.74 49.12 325.13 47.52C324.52 45.92 323.81 44.37 323 42.86L323 42.86Z" />
	<path id="Layer" class="shp10" d="M288.59 89.95C286.94 89.64 285.27 89.45 283.6 89.38C281.92 89.31 280.24 89.37 278.57 89.55C276.9 89.73 275.25 90.04 273.63 90.46C272 90.89 270.41 91.43 268.87 92.09C267.01 92.92 265.07 93.54 263.08 93.96C261.09 94.38 259.06 94.59 257.03 94.59C255 94.59 252.97 94.37 250.98 93.94C248.99 93.51 247.05 92.87 245.2 92.04C236.51 88.19 225.63 88.27 217.34 92.58C216.73 92.9 216.09 93.19 215.45 93.44C214.8 93.69 214.14 93.9 213.46 94.07C212.79 94.23 212.11 94.36 211.42 94.45C210.73 94.53 210.03 94.58 209.34 94.58C198.05 94.58 188.66 83.2 186.7 68.2C187.26 67.79 187.8 67.35 188.32 66.89C188.84 66.43 189.34 65.94 189.81 65.43C190.29 64.92 190.74 64.39 191.16 63.84C191.58 63.28 191.97 62.71 192.34 62.12C199 51.46 209.21 44.59 220.72 44.59C232.23 44.59 242.36 51.36 248.98 61.91C249.96 63.5 251.15 64.95 252.5 66.24C253.86 67.52 255.37 68.63 257.01 69.53C258.64 70.43 260.39 71.11 262.2 71.57C264.01 72.02 265.87 72.24 267.74 72.22L268 72.22C277 72.23 284.8 79.44 288.59 89.95Z" />
	<path id="Layer" class="shp0" d="M800.07 66.42L791 72.19L796.53 62.19C796.14 61.88 795.73 61.6 795.3 61.35C794.86 61.11 794.41 60.9 793.94 60.73C793.47 60.56 792.99 60.43 792.5 60.34C792.01 60.25 791.52 60.2 791.02 60.19L790.88 60.19C790.72 60.19 790.56 60.19 790.41 60.19C790.25 60.18 790.09 60.17 789.93 60.16C789.77 60.15 789.62 60.13 789.46 60.12C789.3 60.1 789.15 60.08 788.99 60.05L785.9 62.05L787.2 59.59C786.66 59.4 786.13 59.17 785.63 58.9C785.12 58.63 784.63 58.32 784.18 57.97C783.72 57.62 783.29 57.24 782.89 56.83C782.49 56.41 782.13 55.97 781.8 55.5L776.28 59L779.77 52.66C779.04 51.72 778.2 50.85 777.28 50.09C776.36 49.33 775.36 48.68 774.29 48.14C773.22 47.6 772.1 47.18 770.94 46.89C769.78 46.59 768.59 46.43 767.4 46.4C761.65 46.4 756.54 49.82 753.24 55.14C752.75 55.93 752.16 56.65 751.49 57.28C750.81 57.92 750.05 58.46 749.23 58.9C748.41 59.34 747.54 59.66 746.64 59.87C745.73 60.08 744.81 60.17 743.88 60.14L743.57 60.14C737.23 60.14 732.09 67.33 732.09 76.14C732.09 84.95 737.23 92.19 743.57 92.19C743.92 92.19 744.26 92.17 744.61 92.12C744.95 92.08 745.29 92.02 745.63 91.93C745.97 91.85 746.3 91.74 746.62 91.62C746.95 91.5 747.26 91.35 747.57 91.19C748.65 90.67 749.77 90.26 750.94 89.98C752.1 89.7 753.29 89.55 754.49 89.53C755.68 89.5 756.88 89.61 758.05 89.85C759.22 90.08 760.36 90.44 761.46 90.92C762.39 91.33 763.35 91.65 764.35 91.86C765.34 92.07 766.35 92.17 767.37 92.17C768.38 92.17 769.39 92.07 770.38 91.86C771.38 91.65 772.34 91.33 773.27 90.92C774.36 90.45 775.49 90.1 776.65 89.87C777.82 89.64 779 89.53 780.18 89.56C781.37 89.58 782.55 89.73 783.7 90.01C784.85 90.28 785.97 90.68 787.04 91.19C787.35 91.35 787.66 91.5 787.99 91.62C788.31 91.74 788.64 91.85 788.98 91.93C789.32 92.02 789.66 92.08 790 92.12C790.35 92.17 790.69 92.19 791.04 92.19C797.38 92.19 802.52 85.01 802.52 76.14C802.52 75.3 802.47 74.45 802.37 73.61C802.27 72.78 802.11 71.94 801.91 71.13C801.7 70.31 801.44 69.5 801.13 68.72C800.83 67.93 800.47 67.16 800.07 66.42L800.07 66.42Z" />
	<path id="Layer" class="shp10" d="M782.92 89.91C782.1 89.75 781.27 89.66 780.43 89.63C779.59 89.59 778.76 89.62 777.93 89.71C777.09 89.81 776.27 89.96 775.46 90.17C774.65 90.38 773.86 90.65 773.09 90.98C772.16 91.39 771.2 91.71 770.2 91.92C769.21 92.13 768.2 92.23 767.18 92.23C766.17 92.23 765.16 92.13 764.17 91.92C763.17 91.71 762.21 91.39 761.28 90.98C760.18 90.5 759.04 90.14 757.87 89.9C756.69 89.67 755.5 89.56 754.3 89.59C753.1 89.61 751.91 89.76 750.75 90.04C749.59 90.32 748.46 90.73 747.38 91.25C747.07 91.41 746.76 91.56 746.43 91.68C746.11 91.81 745.78 91.91 745.44 91.99C745.1 92.08 744.76 92.14 744.42 92.19C744.07 92.23 743.73 92.25 743.38 92.25C737.74 92.25 733.06 86.58 732.08 79.1C732.36 78.9 732.63 78.68 732.89 78.45C733.15 78.23 733.4 77.99 733.63 77.73C733.87 77.48 734.09 77.22 734.3 76.95C734.52 76.67 734.72 76.39 734.9 76.1C738.2 70.78 743.32 67.37 749.06 67.37C754.8 67.37 759.85 70.74 763.15 76C763.64 76.79 764.23 77.52 764.91 78.16C765.58 78.8 766.34 79.35 767.15 79.8C767.97 80.25 768.84 80.59 769.75 80.82C770.65 81.04 771.58 81.15 772.51 81.14L772.66 81.14C777.15 81.07 781 84.67 782.92 89.91Z" />
	<path id="Layer" class="shp0" d="M204.34 215.86L219 225.14L210.12 208.99C210.74 208.49 211.41 208.05 212.11 207.66C212.8 207.27 213.53 206.94 214.28 206.68C215.03 206.41 215.81 206.2 216.59 206.06C217.38 205.92 218.17 205.85 218.97 205.84L219.2 205.84C219.45 205.84 219.7 205.84 219.95 205.83C220.2 205.83 220.45 205.81 220.7 205.8C220.96 205.78 221.21 205.75 221.45 205.72C221.7 205.7 221.95 205.66 222.2 205.62L227.15 208.76L225 204.9C225.87 204.59 226.71 204.22 227.53 203.78C228.34 203.35 229.12 202.85 229.85 202.29C230.59 201.73 231.28 201.12 231.92 200.45C232.55 199.79 233.14 199.08 233.67 198.32L242.54 203.94L237 193.75C242.19 187.53 249.18 183.75 256.87 183.75C266.1 183.75 274.31 189.23 279.62 197.75C280.4 199.02 281.34 200.18 282.42 201.21C283.51 202.23 284.72 203.11 286.03 203.82C287.34 204.53 288.74 205.06 290.19 205.41C291.64 205.75 293.13 205.9 294.62 205.86L295.12 205.86C305.3 205.86 313.55 217.4 313.55 231.64C313.55 245.88 305.3 257.43 295.12 257.43C294.56 257.43 294 257.39 293.45 257.32C292.9 257.25 292.35 257.15 291.81 257.02C291.27 256.88 290.73 256.71 290.21 256.51C289.69 256.31 289.18 256.08 288.69 255.82C286.96 254.98 285.15 254.33 283.28 253.88C281.41 253.43 279.5 253.19 277.58 253.15C275.66 253.11 273.74 253.29 271.86 253.66C269.98 254.04 268.14 254.62 266.38 255.39C264.89 256.06 263.33 256.56 261.74 256.9C260.14 257.24 258.51 257.42 256.88 257.42C255.25 257.42 253.62 257.24 252.02 256.9C250.43 256.56 248.87 256.06 247.38 255.39C245.63 254.63 243.81 254.07 241.94 253.7C240.08 253.33 238.18 253.16 236.27 253.2C234.37 253.24 232.48 253.48 230.63 253.92C228.77 254.36 226.98 255 225.26 255.82C224.77 256.07 224.27 256.3 223.75 256.49C223.24 256.69 222.71 256.85 222.18 256.98C221.64 257.12 221.1 257.22 220.56 257.28C220.01 257.35 219.46 257.39 218.91 257.39C208.72 257.39 200.47 245.85 200.47 231.6C200.46 230.23 200.53 228.87 200.69 227.51C200.85 226.16 201.09 224.81 201.42 223.49C201.74 222.16 202.15 220.86 202.64 219.58C203.13 218.31 203.7 217.06 204.34 215.86L204.34 215.86Z" />
	<path id="Layer" class="shp10" d="M231.89 253.59C233.21 253.34 234.55 253.19 235.89 253.14C237.24 253.09 238.58 253.13 239.92 253.28C241.25 253.42 242.58 253.67 243.88 254.01C245.18 254.35 246.45 254.78 247.69 255.31C249.18 255.98 250.74 256.48 252.33 256.82C253.93 257.16 255.56 257.34 257.19 257.34C258.82 257.34 260.45 257.16 262.05 256.82C263.64 256.48 265.2 255.98 266.69 255.31C268.45 254.54 270.29 253.96 272.17 253.58C274.06 253.21 275.98 253.03 277.9 253.07C279.82 253.11 281.73 253.35 283.6 253.8C285.47 254.25 287.28 254.9 289.01 255.74C289.5 256 290.01 256.23 290.53 256.43C291.05 256.63 291.58 256.8 292.12 256.94C292.66 257.07 293.21 257.17 293.76 257.24C294.32 257.31 294.87 257.35 295.43 257.35C304.48 257.35 312 248.24 313.57 236.22C313.12 235.89 312.69 235.54 312.27 235.17C311.85 234.8 311.45 234.41 311.08 234C310.7 233.59 310.34 233.16 310 232.72C309.66 232.27 309.34 231.81 309.05 231.34C303.74 222.8 295.53 217.34 286.3 217.34C277.07 217.34 268.97 222.76 263.66 231.22C262.87 232.49 261.93 233.65 260.84 234.68C259.76 235.71 258.55 236.59 257.24 237.31C255.93 238.03 254.54 238.58 253.09 238.94C251.64 239.31 250.15 239.49 248.66 239.47L248.43 239.47C241.17 239.4 234.93 245.18 231.89 253.59Z" />
</svg>